<svg xmlns="http://www.w3.org/2000/svg" width="516.4" height="308.1727" viewBox="0 0 261.4066 156"><g transform="matrix(1.20175378,0,0,1.20175378,70.91186,-10.0925)" fill="#7425ff"><path d="m50 72.008c-0.91797 0-1.832-0.046874-2.7422-0.14453-8.9727-0.94531-16.824-6.4453-20.777-14.551-3.9531-8.1094-3.4492-17.684 1.332-25.332 4.7812-7.6484 13.168-12.297 22.188-12.297 0.91016 0 1.8203 0.046875 2.7227 0.14062h0.019532c9.2578 0.96875 17.363 6.8594 21.156 15.375 3.8008 8.5469 2.7539 18.469-2.7422 26.035-4.918 6.7773-12.785 10.781-21.156 10.773zm0-49.121c-12.66 0-22.961 10.301-22.961 22.961-0.007812 5.6719 2.0898 11.148 5.8828 15.367 3.7969 4.2188 9.0234 6.8789 14.668 7.4688 0.80078 0.082031 1.6055 0.125 2.4102 0.125 7.9141-0.003906 15.27-4.0781 19.465-10.789 4.1992-6.707 4.6445-15.105 1.1797-22.223-3.4609-7.1172-10.348-11.945-18.215-12.785h-0.019532c-0.80078-0.082031-1.6055-0.125-2.4102-0.125z"/><path d="m18.305 41.191c-0.10156 0-0.20703-0.007812-0.30859-0.027344-0.86719-0.17187-1.4336-1.0117-1.2617-1.8789 1.3047-6.5938 4.5391-12.652 9.293-17.406s10.812-7.9883 17.406-9.293c0.86719-0.17188 1.707 0.39453 1.8789 1.2617 0.17188 0.86719-0.39453 1.707-1.2617 1.8789-12.09 2.3633-21.805 12.082-24.176 24.172-0.14844 0.75-0.80469 1.293-1.5703 1.293z"/><path d="m81.695 41.191c-0.76562 0-1.4219-0.54297-1.5703-1.293-2.3711-12.094-12.09-21.809-24.18-24.18-0.41797-0.082031-0.78516-0.32422-1.0195-0.67578-0.23828-0.35156-0.32422-0.78516-0.24219-1.2031 0.16797-0.86719 1.0117-1.4297 1.8789-1.2617 6.5938 1.3047 12.652 4.543 17.406 9.2969s7.9883 10.812 9.293 17.41c0.082031 0.41406-0.003907 0.84766-0.24219 1.1992-0.23438 0.35156-0.60156 0.59766-1.0195 0.67969-0.10156 0.019532-0.20312 0.027344-0.30469 0.027344z"/><path d="m43.75 79.141c-0.10547 0-0.20703-0.007813-0.3125-0.027344-6.5938-1.3008-12.656-4.5352-17.41-9.2891-4.7539-4.7539-7.9883-10.816-9.2891-17.414-0.085937-0.41797-0.003906-0.85547 0.23047-1.2109 0.23828-0.35938 0.60938-0.60547 1.0273-0.6875 0.42188-0.082031 0.85547 0.007812 1.2109 0.25 0.35547 0.24219 0.59766 0.61328 0.67188 1.0352 1.1797 5.9727 4.1055 11.461 8.4141 15.77 4.3047 4.3047 9.793 7.2305 15.766 8.4102 0.80859 0.16016 1.3633 0.90625 1.2852 1.7227-0.078125 0.82031-0.76562 1.4453-1.5898 1.4492z"/><path d="m56.25 79.141c-0.82031 0-1.5117-0.625-1.5898-1.4453-0.078125-0.82031 0.47656-1.5664 1.2852-1.7227 5.9727-1.1797 11.461-4.1055 15.77-8.4141 4.3047-4.3047 7.2305-9.793 8.4102-15.766 0.078125-0.42188 0.32031-0.79688 0.67188-1.0391 0.35547-0.23828 0.78906-0.32812 1.2109-0.24609 0.42188 0.082032 0.78906 0.32813 1.0273 0.6875 0.23438 0.35547 0.32031 0.79297 0.23047 1.2109-1.3008 6.5977-4.5352 12.656-9.2891 17.414-4.7539 4.7539-10.812 7.9844-17.41 9.2852-0.10547 0.023437-0.21094 0.035156-0.31641 0.035156z"/><path d="m62.113 39.953h-0.042969c-0.88281-0.023437-1.582-0.75781-1.5586-1.6406 0.19141-7.375-2.6406-12.434-8.6562-15.465-0.78906-0.39844-1.1055-1.3633-0.70703-2.1523 0.39844-0.78906 1.3633-1.1055 2.1523-0.70703 7.1367 3.6016 10.637 9.7891 10.414 18.406-0.023438 0.87109-0.73438 1.5625-1.6016 1.5586z"/><path d="m49.566 33.211c-0.29297 0-0.58203-0.082032-0.83594-0.23438-6.2891-3.8516-12.086-3.9297-17.723-0.23437l0.003907-0.003907c-0.35547 0.23438-0.78906 0.31641-1.2031 0.23047-0.41797-0.085938-0.78125-0.33594-1.0117-0.69141-0.48438-0.73828-0.27734-1.7305 0.46094-2.2148 6.6836-4.3789 13.801-4.3164 21.148 0.18359h-0.003906c0.61328 0.375 0.89844 1.1133 0.70312 1.8008-0.19141 0.69141-0.82422 1.1641-1.5391 1.1641z"/><path d="m27.555 57.441c-0.84766 0-1.5508-0.66016-1.5977-1.5078-0.45703-7.9883 3.1562-14.121 10.734-18.234 0.77344-0.38281 1.7109-0.089844 2.1211 0.66797 0.41406 0.75781 0.15234 1.707-0.59375 2.1445-6.4844 3.5195-9.4492 8.5-9.0664 15.238h0.003906c0.046875 0.88281-0.625 1.6367-1.5078 1.6875z"/><path d="m47.426 71.875c-0.25 0-0.49609-0.058594-0.72266-0.17188-7.1328-3.5938-10.637-9.7891-10.414-18.402 0.023438-0.88281 0.75781-1.582 1.6406-1.5586 0.88672 0.023437 1.582 0.75781 1.5586 1.6406-0.19141 7.375 2.6406 12.434 8.6562 15.465 0.66406 0.33594 1.0117 1.0781 0.83984 1.8008-0.17188 0.72266-0.81641 1.2305-1.5586 1.2305z"/><path d="m60.566 64.867c-3.5781 0-7.2461-1.1406-10.969-3.4258v0.003906c-0.375-0.21484-0.64453-0.57422-0.75-0.99219-0.10547-0.41797-0.035156-0.85938 0.1875-1.2266 0.22656-0.36719 0.58984-0.62891 1.0078-0.72656 0.42188-0.09375 0.86328-0.015625 1.2266 0.21875 6.2891 3.8516 12.086 3.9297 17.723 0.23438 0.35547-0.24219 0.78906-0.32812 1.2109-0.24609 0.42188 0.085938 0.78906 0.33594 1.0234 0.69141 0.23438 0.35937 0.31641 0.79687 0.22656 1.2188-0.089844 0.41797-0.34766 0.78125-0.70703 1.0117-3.2969 2.1602-6.6992 3.2383-10.18 3.2383z"/><path d="m62.547 54.188c-0.73438 0.003906-1.375-0.49609-1.5547-1.2031-0.17969-0.71094 0.14453-1.4531 0.78906-1.8008 6.4844-3.5234 9.4492-8.5078 9.0625-15.238-0.023438-0.42578 0.12109-0.83984 0.40234-1.1562 0.28516-0.31641 0.67969-0.51172 1.1055-0.53516 0.87891-0.050781 1.6367 0.625 1.6875 1.5078 0.46094 7.9844-3.1523 14.117-10.73 18.238-0.23438 0.125-0.49609 0.19141-0.76172 0.1875z"/><path d="m50 18.367c-0.18359 0-0.36719-0.03125-0.53906-0.09375l-6.2539-2.2305 0.003907-0.003907c-0.64063-0.22656-1.0625-0.82812-1.0625-1.5039v-4.5352c0-0.88281 0.71484-1.6016 1.5977-1.6016h12.508c0.42188 0 0.83203 0.17187 1.1289 0.46875 0.30078 0.30078 0.46875 0.70703 0.46875 1.1328v4.5352c0 0.67578-0.42187 1.2773-1.0625 1.5039l-6.2539 2.2305 0.003906 0.003907c-0.17187 0.0625-0.35547 0.09375-0.53906 0.09375zm-4.6523-4.9609 4.6523 1.6602 4.6523-1.6602v-1.8047h-9.3047zm10.906 1.1289z"/><path d="m56.254 83.293h-12.508c-0.88281 0-1.5977-0.71484-1.5977-1.6016v-4.5352c0-0.67578 0.42187-1.2773 1.0625-1.5039l6.2539-2.2305h-0.003906c0.34766-0.125 0.73047-0.125 1.0781 0l6.2539 2.2305h-0.003907c0.64063 0.22656 1.0625 0.82812 1.0625 1.5039v4.5352c0 0.88672-0.71484 1.6016-1.5977 1.6016zm-10.906-3.1992h9.3047v-1.8086l-4.6523-1.6602-4.6523 1.6602z"/><path d="m85.848 53.699h-4.5352c-0.67578 0-1.2812-0.42578-1.5078-1.0625l-2.2305-6.2539v0.003907c-0.125-0.35156-0.125-0.73047 0-1.0781l2.2305-6.2539v0.003906c0.22656-0.64062 0.83203-1.0664 1.5078-1.0664h4.5352c0.42188 0 0.82812 0.17187 1.1289 0.46875 0.30078 0.30078 0.46875 0.70703 0.46875 1.1328v12.508c0 0.42188-0.16797 0.82813-0.46875 1.1289-0.30078 0.30078-0.70703 0.46875-1.1289 0.46875zm-3.4062-3.1992h1.8047v-9.3086h-1.8047l-1.6602 4.6523z"/><path d="m18.688 53.699h-4.5352c-0.88281 0-1.5977-0.71484-1.5977-1.5977v-12.508c0-0.88281 0.71484-1.6016 1.5977-1.6016h4.5352c0.67969 0 1.2852 0.42578 1.5117 1.0625l2.2305 6.2539c0.125 0.34766 0.125 0.72656 0 1.0742l-2.2305 6.2539c-0.22656 0.64062-0.83203 1.0664-1.5117 1.0625zm-2.9336-3.1992h1.8047l1.6602-4.6523-1.6602-4.6562h-1.8047z"/><path d="m77.926 91.602h-55.852c-1.5391 0.019532-3.0234-0.57812-4.1172-1.6602-1.0977-1.082-1.7109-2.5547-1.7109-4.0938 0-1.5391 0.61328-3.0156 1.7109-4.0977 1.0938-1.082 2.5781-1.6758 4.1172-1.6562h55.852c1.5391-0.019531 3.0234 0.57422 4.1172 1.6562 1.0977 1.082 1.7109 2.5586 1.7109 4.0977 0 1.5391-0.61328 3.0117-1.7109 4.0938-1.0938 1.082-2.5781 1.6797-4.1172 1.6602zm-55.852-8.3086c-0.6875-0.011719-1.3477 0.25-1.8398 0.73047-0.48828 0.48047-0.76562 1.1367-0.76562 1.8242 0 0.68359 0.27734 1.3438 0.76562 1.8242 0.49219 0.48047 1.1523 0.74219 1.8398 0.72656h55.852c0.6875 0.015624 1.3477-0.24609 1.8398-0.72656 0.48828-0.48047 0.76562-1.1406 0.76562-1.8242 0-0.6875-0.27734-1.3438-0.76562-1.8242-0.49219-0.48047-1.1523-0.74219-1.8398-0.73047z"/><path d="m50 72.008c-0.91016 0-1.8203-0.046874-2.7227-0.14062h-0.019532c-1.7383-0.17969-3.4492-0.53516-5.1133-1.0586-0.84375-0.26562-1.3125-1.1641-1.0469-2.0078 0.26562-0.83984 1.1641-1.3086 2.0039-1.043 1.457 0.45703 2.9531 0.76563 4.4688 0.92578h0.019532c0.80078 0.082031 1.6055 0.125 2.4102 0.125 2.3398 0 4.668-0.35547 6.8984-1.0547 0.84375-0.26562 1.7422 0.20312 2.0078 1.0469s-0.20312 1.7422-1.0469 2.0078c-2.543 0.79688-5.1953 1.1992-7.8594 1.1992z"/><path d="m70.086 83.293h-40.172c-0.54297 0-1.0469-0.27344-1.3438-0.73047-0.29297-0.45703-0.33984-1.0312-0.11719-1.5273l3.6172-8.0508h0.003907c0.1875-0.41406 0.54297-0.73047 0.97656-0.86719 0.43359-0.13672 0.90625-0.082032 1.3008 0.14844 2.6875 1.5977 5.6055 2.7695 8.6484 3.4805 0.070312-0.039063 0.14062-0.070313 0.21484-0.09375l6.2539-2.2305h-0.003906c0.34766-0.125 0.73047-0.125 1.0781 0l6.2539 2.2305c0.070313 0.023437 0.14062 0.054687 0.21094 0.09375 3.043-0.71094 5.9609-1.8828 8.6445-3.4805 0.39453-0.23047 0.86719-0.28516 1.3008-0.14844 0.43359 0.13672 0.78906 0.45312 0.97656 0.86719l3.6172 8.0508h0.003906c0.22266 0.49609 0.17578 1.0703-0.11719 1.5273-0.29688 0.45703-0.80078 0.73047-1.3438 0.73047zm-37.699-3.1992h35.227l-1.8906-4.1992c-2.8828 1.5117-5.9688 2.5938-9.1602 3.2188-0.66016 0.13281-1.332-0.16797-1.6797-0.74219l-4.8828-1.7461-4.8828 1.7422c-0.34766 0.57812-1.0195 0.875-1.6797 0.74609-3.1914-0.625-6.2773-1.7109-9.1602-3.2227z"/></g><g transform="matrix(2.5,0,0,2.5,-2.25,105.5)" fill="#d9d9d9"><path d="M1.1 9.9 l0 -0.6 c0 -1.9 1.4 -3.3 3.5 -3.3 l5.5 0 l0 0.9 l-0.4 0.4 l-5.1 0 c-1.1 0 -2 0.9 -2 2 l0 0.6 c0 1.1 0.6 1.68 1.6 1.9 l3.7 0.8 c1.4 0.3 2.5 1.4 2.5 3.2 l0 0.9 c0 1.9 -1.4 3.3 -3.5 3.3 l-6 0 l0 -1.3 l6 0 c1.1 0 2 -0.9 2 -2 l0 -0.9 c0 -1.1 -0.6 -1.68 -1.6 -1.9 l-3.7 -0.8 c-1.4 -0.3 -2.5 -1.4 -2.5 -3.2 z M11.5425 16.9 l0 -7.8 c0 -1.9 1.4 -3.3 3.5 -3.3 l3.5 0 c2.1 0 3.5 1.4 3.5 3.3 l0 7.8 c0 1.9 -1.4 3.3 -3.5 3.3 l-3.5 0 c-2.1 0 -3.5 -1.4 -3.5 -3.3 z M20.5425 16.9 l0 -7.8 c0 -1.1 -0.9 -2 -2 -2 l-3.5 0 c-1.1 0 -2 0.9 -2 2 l0 7.8 c0 1.1 0.9 2 2 2 l3.5 0 c1.1 0 2 -0.9 2 -2 z M24.285 6 l1.5 0 l0 12.7 l7.5 0 l0 1.3 l-9 0 l0 -14 z M33.7275 16.9 l0 -7.8 c0 -1.9 1.4 -3.3 3.5 -3.3 l3.5 0 c2.1 0 3.5 1.4 3.5 3.3 l0 7.8 c0 1.9 -1.4 3.3 -3.5 3.3 l-3.5 0 c-2.1 0 -3.5 -1.4 -3.5 -3.3 z M42.7275 16.9 l0 -7.8 c0 -1.1 -0.9 -2 -2 -2 l-3.5 0 c-1.1 0 -2 0.9 -2 2 l0 7.8 c0 1.1 0.9 2 2 2 l3.5 0 c1.1 0 2 -0.9 2 -2 z M46.47 20 l0 -14 l6.4 0 c2.1 0 3.5 1.4 3.5 3.3 l0 7.4 c0 1.9 -1.4 3.3 -3.5 3.3 l-6.4 0 z M47.97 7.3 l0 11.4 l4.9 0 c1.1 0 2 -0.9 2 -2 l0 -7.4 c0 -1.1 -0.9 -2 -2 -2 l-4.9 0 z M58.6125 20 l0 -14 l9.1 0 l0 0.9 l-0.4 0.4 l-7.2 0 l0 4.9 l5.7 0 l0 1.3 l-5.7 0 l0 5.2 l7.6 0 l0 1.3 l-9.1 0 z M72.755 18.2 l0.1 0 l4 -12.2 l1.5 0 l0 0.6 l-4.6 13.4 l-1.9 0 l-4.6 -13.4 l0 -0.6 l1.5 0 z"/></g><g transform="matrix(2.549377593360996,0,0,2.549377593360996,198.31950,104.51452)" fill="#7425ff"><path d="M3.212891 20.195313 c-0.742187 0 -1.376953 -0.615234 -1.376953 -1.367187 s0.634766 -1.376953 1.376953 -1.376953 c0.751953 0 1.376953 0.625 1.376953 1.376953 s-0.625 1.367188 -1.376953 1.367188 z M17.56836 20 l-1.103516 -3.095703 l-6.083984 0 l-1.09375 3.095703 l-2.412109 0 l5.126953 -13.925781 l2.841797 0 l5.126953 13.925781 l-2.402344 0 z M11.09375 14.902344 l4.667969 0 l-2.333984 -6.582031 z M22.41211 20 l0 -13.925781 l2.333984 0 l0 13.925781 l-2.333984 0 z"></path></g></svg>
