<svg xmlns="http://www.w3.org/2000/svg" width="800" height="800" viewBox="0 0 800 800"><circle cx="708" cy="654" r="1.06" fill="#ffffff" opacity="0.71"/><circle cx="449" cy="576" r="0.74" fill="#ffffff" opacity="0.28"/><circle cx="562" cy="624" r="0.84" fill="#ffffff" opacity="0.44"/><circle cx="592" cy="758" r="1.09" fill="#ffffff" opacity="0.79"/><circle cx="146" cy="107" r="0.79" fill="#ffffff" opacity="0.75"/><circle cx="130" cy="353" r="0.48" fill="#ffffff" opacity="0.55"/><circle cx="536" cy="32" r="0.69" fill="#ffffff" opacity="0.70"/><circle cx="346" cy="587" r="0.31" fill="#ffffff" opacity="0.79"/><circle cx="380" cy="141" r="0.99" fill="#ffffff" opacity="0.36"/><circle cx="272" cy="610" r="0.46" fill="#ffffff" opacity="0.27"/><circle cx="783" cy="148" r="0.80" fill="#ffffff" opacity="0.82"/><circle cx="244" cy="521" r="0.27" fill="#ffffff" opacity="0.29"/><circle cx="334" cy="625" r="0.99" fill="#ffffff" opacity="0.48"/><circle cx="391" cy="123" r="1.05" fill="#ffffff" opacity="0.62"/><circle cx="257" cy="428" r="0.71" fill="#ffffff" opacity="0.73"/><circle cx="455" cy="611" r="1.08" fill="#ffffff" opacity="0.53"/><circle cx="502" cy="247" r="0.77" fill="#ffffff" opacity="0.59"/><circle cx="151" cy="394" r="0.22" fill="#ffffff" opacity="0.27"/><circle cx="369" cy="300" r="0.45" fill="#ffffff" opacity="0.82"/><circle cx="51" cy="252" r="0.55" fill="#ffffff" opacity="0.55"/><circle cx="460" cy="152" r="0.29" fill="#ffffff" opacity="0.53"/><circle cx="609" cy="226" r="0.58" fill="#ffffff" opacity="0.57"/><circle cx="370" cy="672" r="1.01" fill="#ffffff" opacity="0.28"/><circle cx="117" cy="236" r="0.63" fill="#ffffff" opacity="0.70"/><circle cx="108" cy="123" r="0.28" fill="#ffffff" opacity="0.75"/><circle cx="392" cy="440" r="0.93" fill="#ffffff" opacity="0.80"/><circle cx="456" cy="380" r="0.94" fill="#ffffff" opacity="0.59"/><circle cx="200" cy="523" r="1.04" fill="#ffffff" opacity="0.58"/><circle cx="652" cy="90" r="0.91" fill="#ffffff" opacity="0.68"/><circle cx="409" cy="316" r="0.92" fill="#ffffff" opacity="0.58"/><circle cx="617" cy="360" r="0.77" fill="#ffffff" opacity="0.45"/><circle cx="82" cy="155" r="0.67" fill="#ffffff" opacity="0.35"/><circle cx="510" cy="578" r="0.26" fill="#ffffff" opacity="0.48"/><circle cx="294" cy="168" r="0.97" fill="#ffffff" opacity="0.77"/><circle cx="15" cy="367" r="0.79" fill="#ffffff" opacity="0.80"/><circle cx="493" cy="99" r="0.47" fill="#ffffff" opacity="0.70"/><circle cx="564" cy="479" r="0.43" fill="#ffffff" opacity="0.74"/><circle cx="186" cy="461" r="0.97" fill="#ffffff" opacity="0.62"/><circle cx="91" cy="213" r="0.34" fill="#ffffff" opacity="0.42"/><circle cx="359" cy="228" r="0.66" fill="#ffffff" opacity="0.74"/><circle cx="327" cy="170" r="0.93" fill="#ffffff" opacity="0.82"/><circle cx="637" cy="653" r="0.49" fill="#ffffff" opacity="0.66"/><circle cx="213" cy="747" r="0.46" fill="#ffffff" opacity="0.60"/><circle cx="172" cy="27" r="0.35" fill="#ffffff" opacity="0.60"/><circle cx="265" cy="352" r="0.59" fill="#ffffff" opacity="0.61"/><circle cx="661" cy="169" r="0.43" fill="#ffffff" opacity="0.69"/><circle cx="253" cy="566" r="0.73" fill="#ffffff" opacity="0.35"/><circle cx="307" cy="643" r="0.37" fill="#ffffff" opacity="0.67"/><circle cx="634" cy="629" r="0.26" fill="#ffffff" opacity="0.83"/><circle cx="306" cy="719" r="0.89" fill="#ffffff" opacity="0.49"/><circle cx="497" cy="461" r="0.41" fill="#ffffff" opacity="0.64"/><circle cx="666" cy="258" r="0.55" fill="#ffffff" opacity="0.82"/><circle cx="61" cy="221" r="0.51" fill="#ffffff" opacity="0.80"/><circle cx="569" cy="338" r="0.42" fill="#ffffff" opacity="0.32"/><circle cx="491" cy="392" r="1.02" fill="#ffffff" opacity="0.45"/><circle cx="54" cy="404" r="1.09" fill="#ffffff" opacity="0.49"/><circle cx="256" cy="7" r="1.00" fill="#ffffff" opacity="0.71"/><circle cx="642" cy="763" r="0.45" fill="#ffffff" opacity="0.72"/><circle cx="17" cy="202" r="0.55" fill="#ffffff" opacity="0.55"/><circle cx="91" cy="2" r="0.94" fill="#ffffff" opacity="0.42"/><circle cx="52" cy="304" r="0.35" fill="#ffffff" opacity="0.84"/><circle cx="484" cy="148" r="0.37" fill="#ffffff" opacity="0.80"/><circle cx="607" cy="57" r="0.85" fill="#ffffff" opacity="0.43"/><circle cx="55" cy="349" r="0.41" fill="#ffffff" opacity="0.61"/><circle cx="388" cy="775" r="0.25" fill="#ffffff" opacity="0.42"/><circle cx="738" cy="704" r="0.42" fill="#ffffff" opacity="0.56"/><circle cx="384" cy="630" r="0.34" fill="#ffffff" opacity="0.41"/><circle cx="263" cy="217" r="0.80" fill="#ffffff" opacity="0.42"/><circle cx="218" cy="77" r="0.26" fill="#ffffff" opacity="0.60"/><circle cx="772" cy="82" r="0.74" fill="#ffffff" opacity="0.67"/><circle cx="641" cy="608" r="0.82" fill="#ffffff" opacity="0.60"/><circle cx="378" cy="310" r="0.97" fill="#ffffff" opacity="0.34"/><circle cx="152" cy="38" r="0.40" fill="#ffffff" opacity="0.56"/><circle cx="456" cy="80" r="0.91" fill="#ffffff" opacity="0.75"/><circle cx="154" cy="335" r="0.45" fill="#ffffff" opacity="0.80"/><circle cx="659" cy="231" r="0.84" fill="#ffffff" opacity="0.50"/><circle cx="241" cy="766" r="0.76" fill="#ffffff" opacity="0.69"/><circle cx="78" cy="686" r="1.09" fill="#ffffff" opacity="0.57"/><circle cx="424" cy="394" r="0.83" fill="#ffffff" opacity="0.29"/><circle cx="531" cy="1" r="0.98" fill="#ffffff" opacity="0.80"/><circle cx="683" cy="296" r="0.80" fill="#ffffff" opacity="0.66"/><circle cx="783" cy="261" r="1.00" fill="#ffffff" opacity="0.32"/><circle cx="257" cy="717" r="0.37" fill="#ffffff" opacity="0.29"/><circle cx="103" cy="499" r="1.07" fill="#ffffff" opacity="0.85"/><circle cx="667" cy="365" r="1.03" fill="#ffffff" opacity="0.39"/><circle cx="753" cy="249" r="0.42" fill="#ffffff" opacity="0.76"/><circle cx="471" cy="227" r="0.71" fill="#ffffff" opacity="0.35"/><circle cx="610" cy="440" r="0.63" fill="#ffffff" opacity="0.31"/><circle cx="154" cy="728" r="0.84" fill="#ffffff" opacity="0.80"/><circle cx="721" cy="15" r="0.32" fill="#ffffff" opacity="0.77"/><circle cx="346" cy="218" r="0.39" fill="#ffffff" opacity="0.47"/><circle cx="591" cy="289" r="0.43" fill="#ffffff" opacity="0.82"/><circle cx="585" cy="396" r="0.50" fill="#ffffff" opacity="0.69"/><circle cx="408" cy="233" r="0.92" fill="#ffffff" opacity="0.68"/><circle cx="199" cy="264" r="0.68" fill="#ffffff" opacity="0.62"/><circle cx="598" cy="302" r="0.94" fill="#ffffff" opacity="0.53"/><circle cx="530" cy="218" r="1.02" fill="#ffffff" opacity="0.73"/><circle cx="310" cy="388" r="0.40" fill="#ffffff" opacity="0.60"/><circle cx="492" cy="268" r="0.45" fill="#ffffff" opacity="0.68"/><circle cx="444" cy="708" r="0.38" fill="#ffffff" opacity="0.43"/><circle cx="659" cy="393" r="1.09" fill="#ffffff" opacity="0.56"/><circle cx="1" cy="26" r="0.52" fill="#ffffff" opacity="0.34"/><circle cx="683" cy="634" r="0.51" fill="#ffffff" opacity="0.77"/><circle cx="177" cy="13" r="0.64" fill="#ffffff" opacity="0.29"/><circle cx="458" cy="111" r="0.87" fill="#ffffff" opacity="0.51"/><circle cx="182" cy="530" r="0.21" fill="#ffffff" opacity="0.36"/><circle cx="200" cy="581" r="0.56" fill="#ffffff" opacity="0.80"/><circle cx="797" cy="254" r="0.28" fill="#ffffff" opacity="0.39"/><circle cx="274" cy="131" r="0.97" fill="#ffffff" opacity="0.79"/><circle cx="459" cy="231" r="0.55" fill="#ffffff" opacity="0.69"/><circle cx="750" cy="190" r="0.25" fill="#ffffff" opacity="0.38"/><circle cx="692" cy="768" r="0.71" fill="#ffffff" opacity="0.66"/><circle cx="689" cy="296" r="0.30" fill="#ffffff" opacity="0.36"/><circle cx="52" cy="452" r="0.49" fill="#ffffff" opacity="0.29"/><circle cx="369" cy="576" r="0.90" fill="#ffffff" opacity="0.38"/><circle cx="623" cy="508" r="0.42" fill="#ffffff" opacity="0.80"/><circle cx="35" cy="773" r="0.70" fill="#ffffff" opacity="0.50"/><circle cx="638" cy="87" r="0.37" fill="#ffffff" opacity="0.34"/><circle cx="794" cy="602" r="0.61" fill="#ffffff" opacity="0.62"/><circle cx="432" cy="87" r="0.58" fill="#ffffff" opacity="0.83"/><circle cx="433" cy="635" r="0.60" fill="#ffffff" opacity="0.35"/><circle cx="135" cy="311" r="0.56" fill="#ffffff" opacity="0.82"/><circle cx="178" cy="527" r="0.72" fill="#ffffff" opacity="0.47"/><circle cx="288" cy="354" r="0.40" fill="#ffffff" opacity="0.80"/><circle cx="779" cy="168" r="0.88" fill="#ffffff" opacity="0.60"/><circle cx="606" cy="226" r="0.83" fill="#ffffff" opacity="0.41"/><circle cx="735" cy="577" r="0.36" fill="#ffffff" opacity="0.30"/><circle cx="61" cy="707" r="0.37" fill="#ffffff" opacity="0.36"/><circle cx="648" cy="518" r="0.60" fill="#ffffff" opacity="0.47"/><circle cx="708" cy="236" r="1.09" fill="#ffffff" opacity="0.44"/><circle cx="113" cy="60" r="0.52" fill="#ffffff" opacity="0.49"/><circle cx="38" cy="335" r="0.64" fill="#ffffff" opacity="0.44"/><circle cx="741" cy="666" r="0.49" fill="#ffffff" opacity="0.43"/><circle cx="669" cy="362" r="1.04" fill="#ffffff" opacity="0.80"/><circle cx="110" cy="212" r="0.65" fill="#ffffff" opacity="0.73"/><circle cx="566" cy="0" r="0.95" fill="#ffffff" opacity="0.65"/><circle cx="662" cy="545" r="0.73" fill="#ffffff" opacity="0.49"/><circle cx="597" cy="682" r="0.33" fill="#ffffff" opacity="0.52"/><circle cx="717" cy="371" r="0.38" fill="#ffffff" opacity="0.33"/><circle cx="625" cy="343" r="1.08" fill="#ffffff" opacity="0.56"/><circle cx="432" cy="677" r="0.27" fill="#ffffff" opacity="0.82"/><circle cx="127" cy="712" r="0.28" fill="#ffffff" opacity="0.45"/><circle cx="292" cy="289" r="0.90" fill="#ffffff" opacity="0.80"/><circle cx="148" cy="732" r="1.08" fill="#ffffff" opacity="0.84"/><circle cx="129" cy="756" r="0.35" fill="#ffffff" opacity="0.81"/><circle cx="196" cy="116" r="0.79" fill="#ffffff" opacity="0.43"/><circle cx="279" cy="579" r="0.65" fill="#ffffff" opacity="0.36"/><circle cx="458" cy="238" r="0.28" fill="#ffffff" opacity="0.62"/><circle cx="71" cy="358" r="0.44" fill="#ffffff" opacity="0.43"/><circle cx="559" cy="752" r="0.50" fill="#ffffff" opacity="0.40"/><circle cx="46" cy="490" r="0.67" fill="#ffffff" opacity="0.27"/><circle cx="449" cy="749" r="0.46" fill="#ffffff" opacity="0.60"/><circle cx="720" cy="184" r="0.31" fill="#ffffff" opacity="0.75"/><circle cx="227" cy="446" r="0.34" fill="#ffffff" opacity="0.77"/><circle cx="264" cy="221" r="0.54" fill="#ffffff" opacity="0.76"/><circle cx="495" cy="209" r="0.68" fill="#ffffff" opacity="0.61"/><circle cx="733" cy="639" r="0.77" fill="#ffffff" opacity="0.71"/><circle cx="49" cy="107" r="0.40" fill="#ffffff" opacity="0.69"/><circle cx="419" cy="560" r="0.42" fill="#ffffff" opacity="0.38"/><circle cx="499" cy="2" r="0.77" fill="#ffffff" opacity="0.49"/><circle cx="338" cy="142" r="0.62" fill="#ffffff" opacity="0.80"/><circle cx="224" cy="170" r="1.03" fill="#ffffff" opacity="0.46"/><circle cx="57" cy="669" r="0.93" fill="#ffffff" opacity="0.52"/><circle cx="65" cy="59" r="0.90" fill="#ffffff" opacity="0.29"/><circle cx="444" cy="373" r="0.41" fill="#ffffff" opacity="0.65"/><circle cx="741" cy="773" r="0.96" fill="#ffffff" opacity="0.60"/><circle cx="561" cy="390" r="0.96" fill="#ffffff" opacity="0.76"/><circle cx="12" cy="102" r="0.95" fill="#ffffff" opacity="0.76"/><circle cx="685" cy="48" r="0.56" fill="#ffffff" opacity="0.52"/><circle cx="761" cy="69" r="0.48" fill="#ffffff" opacity="0.81"/><circle cx="262" cy="690" r="0.56" fill="#ffffff" opacity="0.57"/><circle cx="421" cy="626" r="0.32" fill="#ffffff" opacity="0.68"/><circle cx="399" cy="430" r="0.96" fill="#ffffff" opacity="0.83"/><circle cx="126" cy="270" r="0.73" fill="#ffffff" opacity="0.50"/><circle cx="483" cy="641" r="0.85" fill="#ffffff" opacity="0.29"/><circle cx="6" cy="405" r="0.32" fill="#ffffff" opacity="0.63"/><circle cx="139" cy="177" r="0.27" fill="#ffffff" opacity="0.34"/><circle cx="604" cy="626" r="0.95" fill="#ffffff" opacity="0.34"/><circle cx="118" cy="529" r="0.94" fill="#ffffff" opacity="0.61"/><circle cx="33" cy="142" r="0.68" fill="#ffffff" opacity="0.49"/><circle cx="518" cy="315" r="0.32" fill="#ffffff" opacity="0.64"/><circle cx="466" cy="534" r="0.72" fill="#ffffff" opacity="0.56"/><circle cx="342" cy="701" r="0.76" fill="#ffffff" opacity="0.74"/><circle cx="758" cy="242" r="0.45" fill="#ffffff" opacity="0.38"/><circle cx="785" cy="154" r="0.28" fill="#ffffff" opacity="0.30"/><circle cx="799" cy="785" r="0.20" fill="#ffffff" opacity="0.32"/><circle cx="257" cy="138" r="1.04" fill="#ffffff" opacity="0.56"/><circle cx="8" cy="723" r="1.10" fill="#ffffff" opacity="0.81"/><circle cx="338" cy="128" r="0.51" fill="#ffffff" opacity="0.80"/><circle cx="349" cy="538" r="0.91" fill="#ffffff" opacity="0.39"/><circle cx="267" cy="372" r="1.08" fill="#ffffff" opacity="0.70"/><circle cx="291" cy="65" r="0.48" fill="#ffffff" opacity="0.79"/><circle cx="766" cy="376" r="0.64" fill="#ffffff" opacity="0.27"/><circle cx="497" cy="437" r="0.83" fill="#ffffff" opacity="0.36"/><circle cx="393" cy="327" r="0.73" fill="#ffffff" opacity="0.69"/><circle cx="443" cy="183" r="0.84" fill="#ffffff" opacity="0.59"/><circle cx="431" cy="649" r="0.95" fill="#ffffff" opacity="0.81"/><circle cx="376" cy="648" r="0.94" fill="#ffffff" opacity="0.31"/><circle cx="712" cy="495" r="0.30" fill="#ffffff" opacity="0.55"/><circle cx="601" cy="743" r="0.24" fill="#ffffff" opacity="0.63"/><circle cx="774" cy="762" r="0.81" fill="#ffffff" opacity="0.63"/><circle cx="508" cy="243" r="0.53" fill="#ffffff" opacity="0.56"/><circle cx="742" cy="452" r="1.09" fill="#ffffff" opacity="0.83"/><circle cx="519" cy="401" r="0.95" fill="#ffffff" opacity="0.27"/><circle cx="362" cy="762" r="0.33" fill="#ffffff" opacity="0.41"/><circle cx="587" cy="310" r="0.51" fill="#ffffff" opacity="0.61"/><circle cx="147" cy="101" r="1.06" fill="#ffffff" opacity="0.82"/><circle cx="10" cy="185" r="0.29" fill="#ffffff" opacity="0.50"/><circle cx="669" cy="48" r="0.90" fill="#ffffff" opacity="0.36"/><circle cx="189" cy="392" r="0.84" fill="#ffffff" opacity="0.28"/><circle cx="783" cy="644" r="1.02" fill="#ffffff" opacity="0.65"/><circle cx="721" cy="201" r="1.05" fill="#ffffff" opacity="0.50"/><circle cx="380" cy="210" r="0.88" fill="#ffffff" opacity="0.25"/><circle cx="15" cy="274" r="0.42" fill="#ffffff" opacity="0.63"/><circle cx="477" cy="503" r="0.67" fill="#ffffff" opacity="0.81"/><circle cx="451" cy="87" r="0.89" fill="#ffffff" opacity="0.53"/><circle cx="640" cy="408" r="0.89" fill="#ffffff" opacity="0.26"/><circle cx="470" cy="686" r="0.36" fill="#ffffff" opacity="0.50"/><circle cx="138" cy="556" r="0.56" fill="#ffffff" opacity="0.33"/><circle cx="791" cy="778" r="0.32" fill="#ffffff" opacity="0.54"/><circle cx="433" cy="484" r="0.71" fill="#ffffff" opacity="0.56"/><circle cx="773" cy="551" r="0.50" fill="#ffffff" opacity="0.63"/><circle cx="201" cy="319" r="0.21" fill="#ffffff" opacity="0.65"/><circle cx="100" cy="430" r="0.53" fill="#ffffff" opacity="0.81"/><circle cx="489" cy="606" r="0.41" fill="#ffffff" opacity="0.64"/><circle cx="204" cy="364" r="0.28" fill="#ffffff" opacity="0.42"/><circle cx="4" cy="257" r="0.42" fill="#ffffff" opacity="0.43"/><circle cx="621" cy="453" r="0.89" fill="#ffffff" opacity="0.77"/><circle cx="533" cy="646" r="0.21" fill="#ffffff" opacity="0.82"/><circle cx="678" cy="499" r="0.97" fill="#ffffff" opacity="0.43"/><circle cx="100" cy="626" r="0.73" fill="#ffffff" opacity="0.81"/><circle cx="121" cy="98" r="0.61" fill="#ffffff" opacity="0.48"/><circle cx="256" cy="90" r="0.99" fill="#ffffff" opacity="0.61"/><circle cx="261" cy="59" r="0.54" fill="#ffffff" opacity="0.56"/><circle cx="301" cy="54" r="0.27" fill="#ffffff" opacity="0.37"/><circle cx="72" cy="362" r="1.08" fill="#ffffff" opacity="0.77"/><circle cx="36" cy="84" r="0.91" fill="#ffffff" opacity="0.42"/><circle cx="8" cy="247" r="0.70" fill="#ffffff" opacity="0.31"/><circle cx="657" cy="248" r="0.93" fill="#ffffff" opacity="0.70"/><circle cx="760" cy="435" r="0.66" fill="#ffffff" opacity="0.79"/><circle cx="573" cy="410" r="0.70" fill="#ffffff" opacity="0.70"/><circle cx="146" cy="283" r="0.25" fill="#ffffff" opacity="0.81"/><circle cx="565" cy="45" r="0.37" fill="#ffffff" opacity="0.27"/><circle cx="132" cy="277" r="0.86" fill="#ffffff" opacity="0.73"/><circle cx="672" cy="200" r="0.54" fill="#ffffff" opacity="0.30"/><circle cx="785" cy="247" r="0.64" fill="#ffffff" opacity="0.46"/><circle cx="16" cy="381" r="0.90" fill="#ffffff" opacity="0.80"/><circle cx="369" cy="531" r="0.59" fill="#ffffff" opacity="0.77"/><circle cx="353" cy="776" r="0.28" fill="#ffffff" opacity="0.56"/><circle cx="759" cy="455" r="0.49" fill="#ffffff" opacity="0.72"/><circle cx="569" cy="210" r="1.01" fill="#ffffff" opacity="0.81"/><circle cx="603" cy="564" r="0.79" fill="#ffffff" opacity="0.38"/><circle cx="495" cy="233" r="0.26" fill="#ffffff" opacity="0.29"/><circle cx="207" cy="571" r="0.60" fill="#ffffff" opacity="0.83"/><circle cx="468" cy="145" r="0.97" fill="#ffffff" opacity="0.31"/><circle cx="557" cy="248" r="0.79" fill="#ffffff" opacity="0.49"/><circle cx="614" cy="546" r="0.85" fill="#ffffff" opacity="0.63"/><circle cx="480" cy="51" r="0.51" fill="#ffffff" opacity="0.74"/><circle cx="679" cy="234" r="0.89" fill="#ffffff" opacity="0.55"/><circle cx="726" cy="670" r="0.57" fill="#ffffff" opacity="0.61"/></svg>